<svg xmlns="http://www.w3.org/2000/svg" id="b" viewBox="0 0 2396.18 418.31"><g id="c"><path d="M571.64,404.63c-16.26-7.09-28.84-17.34-37.77-30.73s-13.39-29.13-13.39-47.21v-134.94c0-5.03,1.2-8.81,3.61-11.33,2.4-2.52,6.35-3.78,11.85-3.78h25.75c5.72,0,9.73,1.2,12.02,3.6,2.29,2.4,3.43,6.24,3.43,11.5v135.97c0,14.88,4.46,26.39,13.39,34.51,8.93,8.13,21.29,12.19,37.08,12.19s28.1-4.06,36.91-12.19c8.81-8.12,13.22-19.63,13.22-34.51v-135.97c0-5.03,1.2-8.81,3.61-11.33,2.4-2.52,6.35-3.78,11.85-3.78h25.75c5.72,0,9.79,1.26,12.19,3.78,2.4,2.52,3.61,6.3,3.61,11.33v134.94c0,18.09-4.52,33.82-13.56,47.21-9.04,13.39-21.63,23.64-37.77,30.73-16.14,7.09-34.74,10.64-55.8,10.64s-39.72-3.55-55.97-10.64Z" style="fill:#4cb6e8"/><path d="M776.09,406.76c-2.15-2.24-3.22-5.78-3.22-10.64v-162.12c0-4.85,1.12-8.44,3.36-10.78,2.24-2.33,5.97-3.5,11.2-3.5h68.6c26.13,0,45.36,5.51,57.68,16.52,12.32,11.02,18.48,27.44,18.48,49.28s-6.12,37.94-18.34,48.86c-12.23,10.92-31.5,16.38-57.82,16.38h-26.6v45.36c0,4.86-1.12,8.4-3.36,10.64-2.24,2.24-6.07,3.36-11.48,3.36h-27.16c-5.42,0-9.2-1.12-11.34-3.36ZM851.55,310.16c7.65,0,13.58-2.05,17.78-6.16,4.2-4.1,6.3-10.26,6.3-18.48s-2.1-14.65-6.3-18.76c-4.2-4.1-10.13-6.16-17.78-6.16h-22.12v49.56h22.12Z" style="fill:#4cb6e8"/><path d="M1016.61,408.16c-1.78-1.3-3.41-3.73-4.9-7.28l-68.88-170.52c-.75-1.68-1.12-3.45-1.12-5.32,0-3.54,1.86-5.32,5.6-5.32h43.12c5.22,0,8.58,2.34,10.08,7l36.68,105.84,36.68-105.84c1.49-4.66,4.94-7,10.36-7h43.12c3.73,0,5.6,1.78,5.6,5.32,0,1.87-.38,3.64-1.12,5.32l-68.6,170.52c-1.5,3.55-3.18,5.98-5.04,7.28-1.87,1.31-4.58,1.96-8.12,1.96h-25.48c-3.55,0-6.21-.65-7.98-1.96Z" style="fill:#4cb6e8"/><path d="M1166.97,388.42c-16.9-17.26-25.34-41.76-25.34-73.5s8.44-56.23,25.34-73.5c16.89-17.26,41.58-25.9,74.06-25.9s57.16,8.64,74.06,25.9c16.89,17.27,25.34,41.77,25.34,73.5s-8.45,56.24-25.34,73.5c-16.9,17.27-41.58,25.9-74.06,25.9s-57.17-8.63-74.06-25.9ZM1273.65,359.44c7-9.89,10.5-24.73,10.5-44.52s-3.5-34.34-10.5-44.24c-7-9.89-17.88-14.84-32.62-14.84s-25.62,4.95-32.62,14.84c-7,9.9-10.5,24.64-10.5,44.24s3.5,34.63,10.5,44.52c7,9.9,17.87,14.84,32.62,14.84s25.62-4.94,32.62-14.84Z" style="fill:#4cb6e8"/><path d="M1409.03,406.76c-2.24-2.24-3.36-5.78-3.36-10.64v-135.52h-43.12c-5.23,0-8.78-1.07-10.64-3.22-1.87-2.14-2.8-5.64-2.8-10.5v-13.16c0-4.85.93-8.4,2.8-10.64,1.86-2.24,5.41-3.36,10.64-3.36h143.08c5.22,0,8.82,1.12,10.78,3.36,1.96,2.24,2.94,5.79,2.94,10.64v13.16c0,4.86-.98,8.36-2.94,10.5-1.96,2.15-5.56,3.22-10.78,3.22h-43.12v135.52c0,4.86-1.12,8.4-3.36,10.64-2.24,2.24-6.07,3.36-11.48,3.36h-27.16c-5.42,0-9.24-1.12-11.48-3.36Z" style="fill:#4cb6e8"/><path d="M1549.45,406.76c-2.15-2.24-3.22-5.78-3.22-10.64v-162.12c0-4.85,1.12-8.44,3.36-10.78,2.24-2.33,5.97-3.5,11.2-3.5h116.2c5.22,0,8.77,1.08,10.64,3.22,1.86,2.15,2.8,5.74,2.8,10.78v12.88c0,5.04-.94,8.64-2.8,10.78-1.87,2.15-5.42,3.22-10.64,3.22h-74.2v34.16h49c5.22,0,8.82,1.08,10.78,3.22,1.96,2.15,2.94,5.74,2.94,10.78v12.32c0,5.04-.98,8.64-2.94,10.78-1.96,2.15-5.56,3.22-10.78,3.22h-49v34.44h73.92c5.22,0,8.77,1.08,10.64,3.22,1.86,2.15,2.8,5.74,2.8,10.78v12.88c0,4.86-.94,8.36-2.8,10.5-1.87,2.15-5.42,3.22-10.64,3.22h-115.92c-5.42,0-9.2-1.12-11.34-3.36Z" style="fill:#4cb6e8"/><path d="M1811.59,406.52c-2.4-2.4-3.61-6.12-3.61-11.16v-203.62c0-5.03,1.2-8.81,3.61-11.33,2.4-2.52,6.35-3.78,11.85-3.78h86.87c58.14,0,87.22,25.41,87.22,76.23,0,16.26-3.43,30.04-10.3,41.38-6.87,11.33-17.06,19.97-30.56,25.92l36.05,78.97c.69,1.6,1.03,3.21,1.03,4.81,0,4.12-2.4,6.18-7.21,6.18h-38.11c-3.21,0-5.61-.4-7.21-1.2-1.6-.8-2.98-2.58-4.12-5.32l-31.59-75.54h-40.86v67.3c0,5.04-1.15,8.76-3.43,11.16-2.29,2.4-6.3,3.61-12.02,3.61h-25.75c-5.49,0-9.44-1.2-11.85-3.61ZM1902.07,287.2c13.05,0,22.83-2.75,29.36-8.24,6.52-5.49,9.79-14.19,9.79-26.1s-2.98-20.6-8.93-26.1c-5.96-5.49-14.88-8.24-26.78-8.24h-40.86v68.67h37.43Z" style="fill:#4cb6e8"/><path d="M2063.96,409.61c-16.37-3.78-29.59-9.1-39.66-15.97-3.43-2.52-5.15-4.81-5.15-6.87,0-1.37.57-2.97,1.72-4.81l14.08-22.32c1.37-2.29,2.86-3.43,4.46-3.43,1.37,0,3.09.69,5.15,2.06,8.47,4.81,18.2,8.7,29.19,11.67,10.99,2.98,22.09,4.46,33.31,4.46,13.27,0,23.12-2.11,29.53-6.35,6.41-4.23,9.61-10.93,9.61-20.09,0-6.18-1.54-11.21-4.64-15.11-3.09-3.89-7.67-7.32-13.73-10.3-6.07-2.97-15.4-6.87-27.99-11.67-14.65-5.49-27.07-11.1-37.26-16.83-10.19-5.72-18.54-13.1-25.07-22.15-6.52-9.04-9.79-20.09-9.79-33.13,0-21.75,7.9-38.4,23.69-49.96,15.79-11.56,36.62-17.34,62.49-17.34,34.11,0,60.2,6.41,78.29,19.23,3.43,2.75,5.15,5.04,5.15,6.87,0,1.37-.57,2.98-1.72,4.81l-14.08,22.32c-1.37,2.29-2.87,3.43-4.46,3.43-1.37,0-3.09-.69-5.15-2.06-13.97-9.15-30.9-13.73-50.82-13.73-24.72,0-37.08,8.93-37.08,26.78,0,5.96,1.43,10.82,4.29,14.59,2.86,3.78,6.81,6.99,11.85,9.61,5.03,2.63,12.93,6.01,23.69,10.13l9.61,3.78c16.71,6.64,29.87,12.88,39.49,18.71,9.62,5.84,17,13,22.15,21.46,5.15,8.47,7.73,19.35,7.73,32.62,0,19.92-7.5,35.77-22.49,47.56-15,11.79-36.69,17.68-65.07,17.68-17.86,0-34.97-1.89-51.33-5.67Z" style="fill:#4cb6e8"/><path d="M2257.28,409.61c-16.37-3.78-29.59-9.1-39.66-15.97-3.43-2.52-5.15-4.81-5.15-6.87,0-1.37.57-2.97,1.72-4.81l14.08-22.32c1.37-2.29,2.86-3.43,4.46-3.43,1.37,0,3.09.69,5.15,2.06,8.47,4.81,18.2,8.7,29.19,11.67,10.99,2.98,22.09,4.46,33.31,4.46,13.27,0,23.12-2.11,29.53-6.35,6.41-4.23,9.61-10.93,9.61-20.09,0-6.18-1.54-11.21-4.64-15.11-3.09-3.89-7.67-7.32-13.73-10.3-6.07-2.97-15.4-6.87-27.99-11.67-14.65-5.49-27.07-11.1-37.26-16.83-10.19-5.72-18.54-13.1-25.07-22.15-6.52-9.04-9.79-20.09-9.79-33.13,0-21.75,7.9-38.4,23.69-49.96,15.79-11.56,36.62-17.34,62.49-17.34,34.11,0,60.2,6.41,78.29,19.23,3.43,2.75,5.15,5.04,5.15,6.87,0,1.37-.57,2.98-1.72,4.81l-14.08,22.32c-1.37,2.29-2.87,3.43-4.46,3.43-1.37,0-3.09-.69-5.15-2.06-13.97-9.15-30.9-13.73-50.82-13.73-24.72,0-37.08,8.93-37.08,26.78,0,5.96,1.43,10.82,4.29,14.59,2.86,3.78,6.81,6.99,11.85,9.61,5.03,2.63,12.93,6.01,23.69,10.13l9.61,3.78c16.71,6.64,29.87,12.88,39.49,18.71,9.62,5.84,17,13,22.15,21.46,5.15,8.47,7.73,19.35,7.73,32.62,0,19.92-7.5,35.77-22.49,47.56-15,11.79-36.69,17.68-65.07,17.68-17.86,0-34.97-1.89-51.33-5.67Z" style="fill:#4cb6e8"/><path d="M359.87,206.33v197.24c0,8.55-7.01,14.48-15.49,14.48h-22.49v-250.67h55.98l-81.47-116.82-81.47,116.82h55.98v85.88c-11.86-15.87-21.96-33.16-37.01-46.42l-62.02-.96c-6.74-2.06-11.98-5.73-14.41-12.56-3.8-10.68,1.39-15.76,7.08-23.84C204.25,113.03,243.69,58.69,285.4,3.61c6.53-4.81,15.45-4.81,21.98,0,126.3,173.42,77.16,106.83,126.3,173.42,4.46,9.33,2.96,19.81-5.9,25.74-1.44.96-7.14,3.56-8.43,3.56h-59.48Z" style="fill:#f48734"/><path d="M131.8,180.52c-3.26,18.5.34,36.23,18.13,45.31,14.09,7.2,32.64,1.38,47.98,4,30.28,31.48,52.3,73.06,60.7,116.12,2.73,13.99,6.82,41.59,3.61,54.95-4.7,19.53-34.03,23.45-45.13,6.51-6.12-9.34-3.25-16.9-4.18-26.79-8.8-94-76.32-163.75-170.44-174.26-11.46-1.28-23.13,1.57-32.95-6.03-18.31-14.17-8.31-42.62,13.98-44.9,6.79-.7,16.96.35,23.97.99,29.33,2.69,57.95,11.41,84.33,24.1Z" style="fill:#f59b5d"/><path d="M20.73,242.53c9.17-1.41,23,.54,32.27,2.24,51.56,9.44,95.95,46.81,113.96,95.87,8.39,22.87,22.78,82.06-19.52,77.41-24.11-2.65-20.08-27.34-22.97-43.96-7.09-40.83-43.14-74.92-84.11-80.75-12.57-1.79-24.32,1.4-33.89-9.09-12.93-14.17-4.82-38.78,14.26-41.72Z" style="fill:#f6b686"/><path d="M35.76,334.44c57.48-6.86,64.35,80.42,7.69,83.6-52.69,2.96-59.56-77.41-7.69-83.6Z" style="fill:#f9c49c"/></g></svg>